<svg id="Capa_1" enable-background="new 0 0 512 512" height="512" viewBox="0 0 512 512" width="512" xmlns="http://www.w3.org/2000/svg"><g><g><path d="m445.048 407.846c-4.143 0-7.5-3.357-7.5-7.5v-57.898c0-4.143 3.357-7.5 7.5-7.5s7.5 3.357 7.5 7.5v57.898c0 4.143-3.358 7.5-7.5 7.5z" fill="#e2916b"/></g><g><path d="m355.258 424.457h-198.516c-4.142 0-7.5-3.357-7.5-7.5s3.358-7.5 7.5-7.5h198.515c4.143 0 7.5 3.357 7.5 7.5s-3.357 7.5-7.499 7.5z" fill="#454045"/></g><g><g fill="#665e66"><path d="m324.876 278.421h-33.719l97.698 224.29c3.405 7.817 12.509 11.411 20.343 7.998 7.826-3.409 11.407-12.517 7.998-20.343z"/><path d="m187.124 278.421-92.32 211.945c-3.409 7.826.172 16.934 7.998 20.343 7.857 3.422 16.948-.203 20.343-7.998l97.698-224.29z"/></g><g><path d="m33.665 18.267h388.376v311.957h-388.376z" fill="#eaf2ff"/><path d="m411.396 18.267h67.322v311.957h-67.322z" fill="#dbe8f9"/></g><g><g><g><g><path d="m433.877 36.534c10.089 0 18.267-8.178 18.267-18.267s-8.178-18.267-18.267-18.267h-415.483c-10.088 0-18.267 8.179-18.267 18.267 0 10.089 8.179 18.267 18.267 18.267z" fill="#9bc4f9"/><path d="m493.606 0h-67.211c10.089 0 18.267 8.178 18.267 18.267 0 10.089-8.178 18.267-18.267 18.267h67.211c10.089 0 18.267-8.178 18.267-18.267 0-10.089-8.179-18.267-18.267-18.267z" fill="#7fb2f9"/><path d="m433.877 348.491c10.089 0 18.267-8.178 18.267-18.267 0-10.088-8.177-18.266-18.265-18.267h-415.485c-10.089 0-18.267 8.179-18.267 18.267s8.179 18.267 18.267 18.267z" fill="#9bc4f9"/><path d="m493.606 311.957h-67.211c10.089 0 18.267 8.178 18.267 18.267 0 10.089-8.178 18.267-18.267 18.267h67.211c10.089 0 18.267-8.178 18.267-18.267 0-10.089-8.179-18.267-18.267-18.267z" fill="#7fb2f9"/></g></g><g><path d="m276.564 171.086c0-34.72-20.383-64.655-49.823-78.561-31.863 11.872-54.562 42.562-54.562 78.561s22.699 66.689 54.562 78.561c29.44-13.907 49.823-43.842 49.823-78.561z" fill="#db578e"/><path d="m256 87.265c-11.976 0-23.356 2.529-33.661 7.055 29.528 12.967 50.159 42.449 50.159 76.766s-20.632 63.799-50.159 76.766c10.305 4.525 21.685 7.055 33.661 7.055 46.293 0 83.82-37.528 83.82-83.82s-37.527-83.822-83.82-83.822z" fill="#d8387d"/><path d="m275.109 155.204-29.29-23.037c-3.658-2.877-9.022-.271-9.022 4.382v69.072c0 4.653 5.364 7.259 9.022 4.382l29.29-23.037c.952-5.149 1.456-10.456 1.456-15.881-.001-5.425-.504-10.732-1.456-15.881z" fill="#fff"/><path d="m289.729 166.703-19.597-15.413c1.538 6.348 2.366 12.974 2.366 19.795s-.828 13.448-2.366 19.795l19.597-15.413c2.839-2.232 2.839-6.531 0-8.764z" fill="#eaf2ff"/></g><circle cx="450.753" cy="418.895" fill="#7fb2f9" r="20.031"/></g></g></g></g></svg>